<?xml version="1.0" encoding="iso-8859-1"?>
<!-- Generator: Adobe Illustrator 19.0.0, SVG Export Plug-In . SVG Version: 6.00 Build 0)  -->
<svg version="1.1" id="Capa_1" xmlns="http://www.w3.org/2000/svg" xmlns:xlink="http://www.w3.org/1999/xlink" x="0px" y="0px"
	 viewBox="0 0 512 512" style="enable-background:new 0 0 512 512;" xml:space="preserve">
<path style="fill:#CBC2BA;" d="M388.932,167H126.1c0.216,0-13.5,13.668-13.5,44.324v89.354C112.6,322,119.274,345,127.508,345
	h259.424c7.991,0,24.469-26.5,24.469-44.322v-88.354C411.4,192,396.923,167,388.932,167z"/>
<polygon style="fill:#EEEEEE;" points="277.635,123.166 230.365,123.166 205.916,167.166 302.084,167.166 "/>
<path style="fill:#75706B;" d="M193,256c0-49.154,39.847-89,89-89s89,39.846,89,89c0,49.156-39.847,89-89,89S193,305.156,193,256z"
	/>
<path style="fill:#69CAEE;" d="M282,303c25.957,0,47-21.043,47-47c0-10.738-2.838-20.629-7.994-28.543l-73.186,60.785
	C256.39,297.324,268.528,303,282,303z"/>
<path style="fill:#EE584F;" d="M429.947,82.053C383.484,35.59,321.709,10,256,10S128.516,35.59,82.051,82.053
	C35.588,128.516,10,190.291,10,256.002c0,65.707,25.588,127.482,72.051,173.945C128.516,476.412,190.291,502,256,502
	s127.484-25.588,173.947-72.053C476.41,383.484,502,321.709,502,256.002C502,190.291,476.41,128.516,429.947,82.053z M256,50.83
	c56.016,0,106.853,22.574,143.914,59.092L85.953,370.684c-22.166-32.76-35.123-72.236-35.123-114.682
	C50.83,142.869,142.869,50.83,256,50.83z M256,461.17c-56.322,0-107.412-22.816-144.525-59.688l314.088-260.863
	c22.457,32.898,35.607,72.631,35.607,115.383C461.17,369.133,369.131,461.17,256,461.17z"/>
<g>
	<path style="fill:#231F20;" d="M152.83,197.664h-0.011c-5.52,0.01-9.989,4.51-9.989,10.02c0.01,5.51,4.5,9.98,10.01,9.98h0.01
		c5.51-0.011,9.99-4.5,9.98-10.011C162.83,202.144,158.34,197.664,152.83,197.664z"/>
	<path style="fill:#231F20;" d="M433.821,134.981c-1.587-2.325-4.081-3.874-6.869-4.266c-2.796-0.392-5.613,0.412-7.778,2.211
		L105.086,393.79c-2.168,1.8-3.476,4.432-3.602,7.247c-0.125,2.815,0.943,5.554,2.942,7.539
		c40.63,40.364,94.46,62.594,151.574,62.594c118.646,0,215.17-96.524,215.17-215.168
		C471.17,212.623,458.255,170.775,433.821,134.981z M401.4,212.324v88.354c0,12.729-11.021,30.727-15.891,34.322h-43.92
		c23.922-18.087,39.41-46.766,39.41-79c0-19.363-5.615-37.422-15.27-52.688l25.796-21.425
		C396.083,188.828,401.4,201.141,401.4,212.324z M214.852,328.623c2.425,2.247,4.958,4.379,7.598,6.377h-15.276L214.852,328.623z
		 M317.35,243.494c1.09,3.912,1.65,8.118,1.65,12.506c0,20.402-16.598,37-37,37c-6.581,0-12.864-1.69-18.389-4.874L317.35,243.494z
		 M282,313c31.43,0,57-25.57,57-57c0-9.317-1.826-18.176-5.323-26.067l16.512-13.714C357.045,227.909,361,241.495,361,256
		c0,43.561-35.439,79-79,79c-19.724,0-37.762-7.281-51.609-19.284l17.219-14.302C257.451,308.849,269.562,313,282,313z M256,451.17
		c-48.114,0-93.661-17.398-129.436-49.221L183.093,355h203.839c9.961,0,18.488-11.133,23.889-20.473
		c3.181-5.502,10.58-19.815,10.58-33.85v-88.354c0-10.849-3.421-23.582-9.385-34.935c-1.432-2.725-3.133-5.599-5.073-8.306
		l16.318-13.553c18.291,30.313,27.909,64.823,27.909,100.472C451.17,363.618,363.617,451.17,256,451.17z"/>
	<path style="fill:#231F20;" d="M437.019,74.981C388.666,26.629,324.379,0,256,0C187.622,0,123.334,26.629,74.979,74.981
		C26.628,123.333,0,187.621,0,256.002c0,68.379,26.628,132.665,74.979,181.017C123.332,485.371,187.62,512,256,512
		c68.381,0,132.668-26.629,181.019-74.981C485.371,388.666,512,324.38,512,256.002C512,187.622,485.371,123.334,437.019,74.981z
		 M422.876,422.876C378.303,467.451,319.038,492,256,492s-122.303-24.549-166.878-69.124C44.548,378.303,20,319.038,20,256.002
		c0-63.039,24.548-122.305,69.122-166.878C133.699,44.549,192.964,20,256,20c63.037,0,122.301,24.549,166.876,69.124
		S492,192.964,492,256.002C492,319.037,467.451,378.301,422.876,422.876z"/>
	<path style="fill:#231F20;" d="M409.905,110.347c0.12-2.823-0.96-5.564-2.973-7.548C366.378,62.838,312.775,40.83,256,40.83
		c-118.646,0-215.17,96.525-215.17,215.172c0,43.071,12.739,84.665,36.841,120.285c1.582,2.338,4.078,3.898,6.873,4.297
		c0.47,0.066,0.94,0.1,1.409,0.1c2.319,0,4.583-0.807,6.389-2.308l313.962-260.762C408.477,115.81,409.785,113.169,409.905,110.347z
		 M162.899,247.653c-0.01-5.51-4.5-9.989-10-9.989h-0.02c-2.67,0.01-5.18,1.05-7.07,2.939c-1.88,1.891-2.92,4.41-2.91,7.08
		l0.097,62.624l-17.372,14.429c-1.67-6.274-3.024-14.666-3.024-24.058v-89.354c0-17.726,5.119-28.836,8.586-34.324h91.254
		C198.502,195.08,183,223.756,183,256c0,6.665,0.677,13.173,1.939,19.471l-21.968,18.246L162.899,247.653z M203,256
		c0-43.561,35.439-79,79-79c6.467,0,12.75,0.792,18.768,2.269l-97.629,81.086C203.057,258.913,203,257.463,203,256z M223.005,157
		l13.244-23.834h35.502L284.995,157H223.005z M327.58,157h-19.705l-21.5-38.691c-1.764-3.174-5.109-5.143-8.741-5.143h-47.27
		c-3.632,0-6.978,1.969-8.741,5.143L200.125,157H126.1c-3.287,0-6.204,1.586-8.026,4.035c-4.747,5.756-15.474,21.916-15.474,50.289
		v89.354c0,8.645,1.469,25.175,6.55,37.741l-20.856,17.322c-18-30.131-27.463-64.386-27.463-99.739
		C60.83,148.384,148.383,60.83,256,60.83c47.79,0,93.106,17.199,128.787,48.656L327.58,157z"/>
</g>
<g>
</g>
<g>
</g>
<g>
</g>
<g>
</g>
<g>
</g>
<g>
</g>
<g>
</g>
<g>
</g>
<g>
</g>
<g>
</g>
<g>
</g>
<g>
</g>
<g>
</g>
<g>
</g>
<g>
</g>
</svg>
